Coordinates
version=1
nRows=12
nColumns=24
inDegrees=yes

Units are S.I. units (second, meters, Newtons, ...)
Angles are in degrees.

endheader
time	pelvis_tilt	pelvis_list	pelvis_rotation	pelvis_tx	pelvis_ty	pelvis_tz	hip_flexion_r	hip_adduction_r	hip_rotation_r	knee_angle_r	ankle_angle_r	subtalar_angle_r	mtp_angle_r	hip_flexion_l	hip_adduction_l	hip_rotation_l	knee_angle_l	ankle_angle_l	subtalar_angle_l	mtp_angle_l	lumbar_extension	lumbar_bending	lumbar_rotation
      0.01000000	     61.88900159	      5.77244011	      9.02444536	      0.77147482	      1.08230888	     -0.27322659	     -4.72880607	    -13.43704283	     -4.63919261	    -52.06365746	    -16.56970916	      1.00362003	     46.85710284	     16.15077091	    -14.41431809	      8.50059362	    -15.83243010	    -20.08507661	     12.89913344	    -31.32626134	      0.00000000	      0.00000000	      0.00000000
      0.02000000	     61.88884196	      5.77344153	      9.03654621	      0.77147369	      1.08232679	     -0.27324033	     -4.73069098	    -13.42964269	     -4.63997451	    -52.06596195	    -16.57613101	      0.99937939	     46.86869130	     16.16139941	    -14.41069204	      8.48912012	    -15.83121940	    -20.07467076	     12.88671652	    -31.32811650	      0.00000000	      0.00000000	      0.00000000
      0.03000000	     61.88923970	      5.77296152	      9.04037955	      0.77147115	      1.08232989	     -0.27323454	     -4.72930759	    -13.42615556	     -4.64249976	    -52.06733535	    -16.58291796	      0.99430305	     46.88124536	     16.16889635	    -14.41227627	      8.48788981	    -15.82761333	    -20.06661930	     12.87758778	    -31.33242324	      0.00000000	      0.00000000	      0.00000000
      0.04000000	     61.89006964	      5.77164246	      9.03946546	      0.77146513	      1.08232257	     -0.27321807	     -4.72577549	    -13.42467912	     -4.64577526	    -52.06807638	    -16.58970926	      0.98855367	     46.89460197	     16.17411539	    -14.41677445	      8.49347606	    -15.82176414	    -20.06145258	     12.87078397	    -31.33906323	      0.00000000	      0.00000000	      0.00000000
      0.05000000	     61.89122788	      5.77036352	      9.03699703	      0.77145557	      1.08231352	     -0.27320192	     -4.72146413	    -13.42354249	     -4.64874817	    -52.06839468	    -16.59600278	      0.98240567	     46.90829963	     16.17797300	    -14.42210010	      8.50224352	    -15.81415506	    -20.05960539	     12.86542049	    -31.34758373	      0.00000000	      0.00000000	      0.00000000
      0.06000000	     61.89256541	      5.76965335	      9.03483541	      0.77144322	      1.08230867	     -0.27318892	     -4.71753807	    -13.42186563	     -4.65065739	    -52.06825460	    -16.60123558	      0.97620898	     46.92154449	     16.18091159	    -14.42675630	      8.51129684	    -15.80572523	    -20.06113984	     12.86108510	    -31.35712110	      0.00000000	      0.00000000	      0.00000000
      0.07000000	     61.89398807	      5.76952782	      9.03347267	      0.77142975	      1.08230677	     -0.27317459	     -4.71456869	    -13.41947688	     -4.65122480	    -52.06737295	    -16.60488134	      0.97034966	     46.93326821	     16.18273496	    -14.42986086	      8.51886517	    -15.79764690	    -20.06559820	     12.85794545	    -31.36646240	      0.00000000	      0.00000000	      0.00000000
      0.08000000	     61.89559687	      5.76988637	      9.03246261	      0.77141855	      1.08230533	     -0.27315821	     -4.71259212	    -13.41666596	     -4.65060862	    -52.06544714	    -16.60657974	      0.96523218	     46.94224038	     16.18306094	    -14.43131809	      8.52433092	    -15.79078641	    -20.07200438	     12.85652473	    -31.37421956	      0.00000000	      0.00000000	      0.00000000
      0.09000000	     61.89756798	      5.77065290	      9.03103846	      0.77141299	      1.08230392	     -0.27314289	     -4.71151520	    -13.41401315	     -4.64918849	    -52.06241086	    -16.60625472	      0.96127547	     46.94721048	     16.18183214	    -14.43169679	      8.52792199	    -15.78536481	    -20.07902741	     12.85727848	    -31.37906941	      0.00000000	      0.00000000	      0.00000000
      0.10000000	     61.89994710	      5.77169113	      9.02869459	      0.77141221	      1.08230188	     -0.27312998	     -4.71127051	    -13.41203513	     -4.64742738	    -52.05839989	    -16.60414620	      0.95888911	     46.94706104	     16.17936911	    -14.43167291	      8.53017062	    -15.78117253	    -20.08530114	     12.86022798	    -31.38000344	      0.00000000	      0.00000000	      0.00000000
      0.11000000	     61.90258233	      5.77285032	      9.02549889	      0.77141007	      1.08230017	     -0.27311936	     -4.71164927	    -13.41082840	     -4.64580058	    -52.05348704	    -16.60072494	      0.95839568	     46.94095322	     16.17608182	    -14.43157211	      8.53146127	    -15.77811791	    -20.08981918	     12.86482701	    -31.37653349	      0.00000000	      0.00000000	      0.00000000
      0.12000000	     61.90518207	      5.77399897	      9.02203380	      0.77140375	      1.08230088	     -0.27311062	     -4.71221437	    -13.41005629	     -4.64467826	    -52.04752377	    -16.59652087	      0.95990324	     46.92844500	     16.17219157	    -14.43125738	      8.53186792	    -15.77658211	    -20.09220603	     12.87005429	    -31.36881264	      0.00000000	      0.00000000	      0.00000000
